<svg xmlns:xlink="http://www.w3.org/1999/xlink" xmlns="http://www.w3.org/2000/svg" viewBox="0 0 32 32" width="24px"
    height="24px">
    <title>folder_type_coverage</title>
    <path d="M27.5,5.5H18.2L16.1,9.7H4.4V26.5H29.6V5.5Zm0,4.2H19.3l1.1-2.1h7.1Z" style="fill:#c09553" />
    <rect x="13.728" y="10.867" width="24px" height="24px" style="fill:#ffebe3" />
    <rect x="14.007" y="11.146" width="24px" height="24px" style="fill:#f20" />
    <rect x="18.805" y="11.146" width="24px" height="24px" style="fill:#00a302" />
    <rect x="14.007" y="19.312" width="24px" height="24px" style="fill:#f9ff16" />
    <rect x="25.588" y="11.146" width="24px" height="24px" style="fill:#f9ff16" />
    <rect x="25.588" y="15.405" width="24px" height="24px" style="fill:#f20" />
    <rect x="25.588" y="18.406" width="24px" height="24px" style="fill:#00a302" />
    <rect x="28.442" y="15.405" width="24px" height="24px" style="fill:#00a302" />
    <rect x="18.805" y="23.787" width="24px" height="24px" style="fill:#f20" />
    <rect x="23.596" y="23.787" width="24px" height="24px" style="fill:#00a302" />
    <rect x="23.596" y="27.559" width="24px" height="24px" style="fill:#f9ff16" />
    <rect x="28.442" y="22.144" width="24px" height="24px" style="fill:#f20" />
    <rect x="25.588" y="22.144" width="24px" height="24px" style="fill:#f20" />
    <rect x="25.588" y="23.982" width="24px" height="24px" style="fill:#f20" />
    <rect x="27.744" y="23.982" width="24px" height="24px" style="fill:#00a302" />
    <rect x="25.588" y="26.228" width="24px" height="24px" style="fill:#00a302" />
    <rect x="28.604" y="26.786" width="24px" height="24px" style="fill:#00a302" />
    <rect x="27.744" y="26.761" width="24px" height="24px" style="fill:#f9ff16" />
</svg>