<svg xmlns:xlink="http://www.w3.org/1999/xlink" xmlns="http://www.w3.org/2000/svg" viewBox="0 0 32 32" width="24px"
    height="24px">
    <title>folder_type_log</title>
    <path d="M27.5,5.5H18.2L16.1,9.7H4.4V26.5H29.6V5.5Zm0,4.2H19.3l1.1-2.1h7.1Z" style="fill:#53c153" />
    <rect x="9.95" y="12.933" width="24px" height="24px" style="fill:#00bd02" />
    <rect x="10.731" y="13.714" width="24px" height="24px" style="fill:#fff" />
    <rect x="9.95" y="13.714" width="24px" height="24px" style="fill:#00bd02" />
    <rect x="16.846" y="16.837" width="24px" height="24px" style="fill:#00bd02" />
    <rect x="16.846" y="18.853" width="24px" height="24px" style="fill:#00bd02" />
    <rect x="16.846" y="20.935" width="24px" height="24px" style="fill:#00bd02" />
    <rect x="16.846" y="23.147" width="24px" height="24px" style="fill:#00bd02" />
    <rect x="16.846" y="25.424" width="24px" height="24px" style="fill:#00bd02" />
    <rect x="16.976" y="27.44" width="24px" height="24px" style="fill:#00bd02" />
    <rect x="12.292" y="16.837" width="24px" height="24px" style="fill:#00bd02" />
    <rect x="12.292" y="18.853" width="24px" height="24px" style="fill:#00bd02" />
    <rect x="12.292" y="18.853" width="24px" height="24px" style="fill:#00bd02" />
    <rect x="12.292" y="20.87" width="24px" height="24px" style="fill:#00bd02" />
    <rect x="12.292" y="22.887" width="24px" height="24px" style="fill:#00bd02" />
    <rect x="12.292" y="25.424" width="24px" height="24px" style="fill:#00bd02" />
    <rect x="12.292" y="27.44" width="24px" height="24px" style="fill:#00bd02" />
</svg>