<svg xmlns:xlink="http://www.w3.org/1999/xlink" xmlns="http://www.w3.org/2000/svg" viewBox="0 0 32 32" width="24px"
    height="24px">
    <title>file_type_log</title>
    <path d="M29.4,27.6H2.5V4.5H29.4Zm-25.9-1H28.4V5.5H3.5Z" style="fill:#00bd02" />
    <rect x="2.5" y="5.5" width="24px" height="24px" style="fill:#00bd02" />
    <rect x="11.333" y="9.5" width="24px" height="24px" style="fill:#00bd02" />
    <rect x="11.333" y="12.083" width="24px" height="24px" style="fill:#00bd02" />
    <rect x="11.333" y="14.75" width="24px" height="24px" style="fill:#00bd02" />
    <rect x="11.333" y="17.583" width="24px" height="24px" style="fill:#00bd02" />
    <rect x="11.333" y="20.5" width="24px" height="24px" style="fill:#00bd02" />
    <rect x="11.5" y="23.083" width="24px" height="24px" style="fill:#00bd02" />
    <rect x="5.5" y="9.5" width="24px" height="24px" style="fill:#00bd02" />
    <rect x="5.5" y="12.083" width="24px" height="24px" style="fill:#00bd02" />
    <rect x="5.5" y="12.083" width="24px" height="24px" style="fill:#00bd02" />
    <rect x="5.5" y="14.667" width="24px" height="24px" style="fill:#00bd02" />
    <rect x="5.5" y="17.25" width="24px" height="24px" style="fill:#00bd02" />
    <rect x="5.5" y="20.5" width="24px" height="24px" style="fill:#00bd02" />
    <rect x="5.5" y="23.083" width="24px" height="24px" style="fill:#00bd02" />
</svg>